<svg width="33" height="32" viewBox="0 0 33 32" fill="none" xmlns="http://www.w3.org/2000/svg">
<path d="M8.90316 2.69514C9.08329 2.46097 9.41909 2.43755 9.63036 2.62489L9.69579 2.69514L14.6958 9.19514C14.9306 9.50047 14.7453 9.93274 14.3855 9.99294L14.2995 10H12.6085L15.7467 16.2764C15.8873 16.5577 15.7359 16.881 15.4608 16.9739L15.3828 16.9933L15.2995 17H9.79883L9.79947 22.6667H8.79947L8.79883 17H3.29947C2.95637 17 2.724 16.6667 2.82102 16.354L2.85226 16.2764L5.98947 10H4.29947C3.9439 10 3.72089 9.65025 3.8237 9.34326L3.85631 9.26763L3.90316 9.19514L8.90316 2.69514ZM23.8951 2.70591C24.0748 2.45882 24.4244 2.43411 24.6381 2.63179L24.7038 2.70591L28.7038 8.20591C28.927 8.51279 28.7394 8.93445 28.3843 8.99312L28.2995 9H27.1085L29.7467 14.2764C29.8873 14.5577 29.7359 14.881 29.4608 14.9739L29.3828 14.9933L29.2995 15H24.7988L24.7995 18.6667H23.7995L23.7988 15H19.2995C18.9564 15 18.724 14.6667 18.821 14.3539L18.8523 14.2764L21.4895 9H20.2995C19.9492 9 19.7257 8.6594 19.8204 8.35396L19.8508 8.27855L19.8951 8.20591L23.8951 2.70591Z" fill="black"/>
<path d="M9.2994 3.81885L13.2844 8.99985H11.7994L11.7161 9.00659C11.3929 9.05968 11.1987 9.41658 11.3522 9.72345L14.4894 15.9998H4.1084L7.24661 9.72345L7.27786 9.6459C7.37488 9.33314 7.1425 8.99985 6.7994 8.99985H5.3134L9.2994 3.81885ZM24.2994 3.84985L27.3174 7.99985H26.2994L26.2161 8.00659C25.8929 8.05968 25.6987 8.41658 25.8522 8.72345L28.4894 13.9998H20.1084L22.7466 8.72345L22.7779 8.6459C22.8749 8.33314 22.6425 7.99985 22.2994 7.99985H21.2804L24.2994 3.84985Z" fill="#71C865"/>
<path fill-rule="evenodd" clip-rule="evenodd" d="M9.29954 3.81885L11.7465 6.99985H6.85254L9.29954 3.81885Z" fill="white"/>
<path d="M24.299 3.8501L26.225 6.4991H22.373L24.299 3.8501Z" fill="white"/>
<path fill-rule="evenodd" clip-rule="evenodd" d="M2.7998 29.9998V23.9998C4.71447 23.2665 7.45047 22.6662 9.62247 22.6662C10.6823 22.6662 11.7407 22.7868 12.7813 23.0103L12.7817 22.9572C16.3243 20.2652 20.743 18.6665 25.535 18.6665C27.1283 18.6665 29.3078 18.6652 30.7998 18.9998V29.9998H2.7998Z" fill="#377E64"/>
<path d="M25.5342 18.1665L26.9045 18.1738L27.0661 18.1767C28.4133 18.2038 29.4564 18.2984 30.4084 18.512C30.6778 18.5724 30.8473 18.8398 30.7868 19.1093C30.7264 19.3787 30.459 19.5482 30.1895 19.4877C29.4023 19.3111 28.5276 19.2213 27.4229 19.1862L26.5698 19.1695L25.5342 19.1665C21.3514 19.1665 17.359 20.417 13.9825 22.7091C17.7865 23.6748 21.1703 25.8864 23.6146 29.0215C23.7844 29.2393 23.7455 29.5534 23.5277 29.7232C23.3099 29.893 22.9958 29.8541 22.826 29.6363C19.6655 25.5826 14.8446 23.1662 9.62163 23.1662C7.7289 23.1662 5.64247 23.6377 3.4778 24.4668C3.21992 24.5655 2.93081 24.4365 2.83204 24.1787C2.73327 23.9208 2.86225 23.6317 3.12013 23.5329C5.38989 22.6636 7.59095 22.1662 9.62163 22.1662C10.6507 22.1662 11.6652 22.2548 12.6563 22.4265L12.4783 22.5591C16.207 19.7257 20.7533 18.1665 25.5342 18.1665Z" fill="black"/>
</svg>
